<svg width="32" height="32" viewBox="0 0 32 32" fill="none" xmlns="http://www.w3.org/2000/svg">
<path d="M0.5 16C0.5 7.43959 7.43959 0.5 16 0.5C24.5604 0.5 31.5 7.43959 31.5 16C31.5 24.5604 24.5604 31.5 16 31.5C7.43959 31.5 0.5 24.5604 0.5 16Z" fill="white"/>
<path d="M0.5 16C0.5 7.43959 7.43959 0.5 16 0.5C24.5604 0.5 31.5 7.43959 31.5 16C31.5 24.5604 24.5604 31.5 16 31.5C7.43959 31.5 0.5 24.5604 0.5 16Z" stroke="#B7F4EA"/>
<path d="M20.6667 16H11.3333" stroke="#36E1BC" stroke-width="1.5" stroke-linecap="round" stroke-linejoin="round"/>
<path d="M16 20.6666L11.3333 16L16 11.3333" stroke="#36E1BC" stroke-width="1.5" stroke-linecap="round" stroke-linejoin="round"/>
</svg>
