<svg width="224" height="240" viewBox="0 0 224 240" fill="none" xmlns="http://www.w3.org/2000/svg">
<g filter="url(#filter0_f_237_329)">
<path d="M73.5416 95.374C128.463 101.631 118.895 106.147 123.315 67.3567C127.734 28.5664 76.9062 28.2447 54.7111 59.5408C43.9439 74.7229 23.836 124.202 46.5969 130.762C52.0357 132.33 62.949 94.1672 73.5416 95.374Z" fill="url(#paint0_linear_237_329)"/>
</g>
<g filter="url(#filter1_f_237_329)">
<path d="M121.124 172.599C159.319 212.557 149.077 209.903 177.299 182.927C205.521 155.95 166.673 123.173 129.589 133.014C111.599 137.789 64.4813 162.937 77.7714 182.545C80.9471 187.231 113.757 164.892 121.124 172.599Z" fill="url(#paint1_linear_237_329)"/>
</g>
<defs>
<filter id="filter0_f_237_329" x="0.00758743" y="0.893299" width="159.762" height="166.1" filterUnits="userSpaceOnUse" color-interpolation-filters="sRGB">
<feFlood flood-opacity="0" result="BackgroundImageFix"/>
<feBlend mode="normal" in="SourceGraphic" in2="BackgroundImageFix" result="shape"/>
<feGaussianBlur stdDeviation="18.0922" result="effect1_foregroundBlur_237_329"/>
</filter>
<filter id="filter1_f_237_329" x="39.2573" y="95.0425" width="183.907" height="144.088" filterUnits="userSpaceOnUse" color-interpolation-filters="sRGB">
<feFlood flood-opacity="0" result="BackgroundImageFix"/>
<feBlend mode="normal" in="SourceGraphic" in2="BackgroundImageFix" result="shape"/>
<feGaussianBlur stdDeviation="18.0922" result="effect1_foregroundBlur_237_329"/>
</filter>
<linearGradient id="paint0_linear_237_329" x1="86.0728" y1="35.6561" x2="74.8686" y2="134" gradientUnits="userSpaceOnUse">
<stop stop-color="#18BEFD"/>
<stop offset="1" stop-color="#2DECF9"/>
</linearGradient>
<linearGradient id="paint1_linear_237_329" x1="168.972" y1="134.734" x2="97.4222" y2="203.127" gradientUnits="userSpaceOnUse">
<stop stop-color="#18BEFD"/>
<stop offset="1" stop-color="#2DECF9"/>
</linearGradient>
</defs>
</svg>
