<svg width="97" height="93" viewBox="0 0 97 93" fill="none" xmlns="http://www.w3.org/2000/svg">
<circle cx="50" cy="52.16" r="30" fill="#FDFCFC"/>
<g filter="url(#filter0_f_137_352)">
<path d="M66.5597 49.0445C66.5597 52.7536 71.3008 59.1434 69.4403 61.82C66.9812 65.3577 60.8778 75.14 56.6603 75.14C52.4428 75.14 35.8123 71.8983 33.3533 68.3605C31.4928 65.6839 26.3003 55.9891 26.3003 52.28C26.3003 48.055 29.4727 35.4081 31.8203 32.6C34.2577 29.6845 49.3719 33.4521 53.1456 33.4521C57.5728 33.4521 65.1973 34.5158 67.6403 38.36C69.2854 40.9486 66.5597 45.5792 66.5597 49.0445Z" fill="#36E1BC"/>
</g>
<circle cx="49.52" cy="52.04" r="24" fill="#FDFCFC"/>
<g filter="url(#filter1_f_137_352)">
<path d="M76.6618 45.9848C76.6618 52.166 74.4887 57.8431 70.8598 62.3037C66.0635 68.1993 58.7241 71.9697 50.4979 71.9697C42.2718 71.9697 26.1165 75.5156 21.3201 69.62C17.6913 65.1595 24.3341 52.166 24.3341 45.9848C24.3341 38.9439 36.4021 40.7898 40.9811 36.11C45.7352 31.2513 43.1375 20 50.4979 20C59.1331 20 56.5624 33.6715 61.3274 40.0778C64.5361 44.3918 76.6618 40.2099 76.6618 45.9848Z" fill="#36E1BC"/>
</g>
<circle opacity="0.7" cx="49.6995" cy="52.1" r="16.98" fill="#FDFCFC"/>
<path d="M45.3711 48.0989C45.3711 48.9746 44.6612 48.9869 43.7854 48.9869C42.9097 48.9869 42.1997 48.9746 42.1997 48.0989C42.1997 47.2231 42.9097 46.5132 43.7854 46.5132C44.6612 46.5132 45.3711 47.2231 45.3711 48.0989Z" fill="black"/>
<path d="M57.2959 48.0989C57.2959 48.9746 56.586 48.9869 55.7102 48.9869C54.8345 48.9869 54.1245 48.9746 54.1245 48.0989C54.1245 47.2231 54.8345 46.5132 55.7102 46.5132C56.586 46.5132 57.2959 47.2231 57.2959 48.0989Z" fill="black"/>
<path d="M43.976 49.1137C43.976 49.3589 42.8685 49.3674 41.5023 49.3674C40.1361 49.3674 39.0286 49.3589 39.0286 49.1137C39.0286 48.8685 40.1361 48.6697 41.5023 48.6697C42.8685 48.6697 43.976 48.8685 43.976 49.1137Z" fill="#FF6767"/>
<path d="M60.7216 49.1137C60.7216 49.3589 59.6141 49.3674 58.2479 49.3674C56.8817 49.3674 55.7742 49.3589 55.7742 49.1137C55.7742 48.8685 56.8817 48.6697 58.2479 48.6697C59.6141 48.6697 60.7216 48.8685 60.7216 49.1137Z" fill="#FF6767"/>
<defs>
<filter id="filter0_f_137_352" x="17.1957" y="22.3888" width="61.7819" height="61.8558" filterUnits="userSpaceOnUse" color-interpolation-filters="sRGB">
<feFlood flood-opacity="0" result="BackgroundImageFix"/>
<feBlend mode="normal" in="SourceGraphic" in2="BackgroundImageFix" result="shape"/>
<feGaussianBlur stdDeviation="4.5523" result="effect1_foregroundBlur_137_352"/>
</filter>
<filter id="filter1_f_137_352" x="0.596523" y="0.360683" width="95.7047" height="92.3056" filterUnits="userSpaceOnUse" color-interpolation-filters="sRGB">
<feFlood flood-opacity="0" result="BackgroundImageFix"/>
<feBlend mode="normal" in="SourceGraphic" in2="BackgroundImageFix" result="shape"/>
<feGaussianBlur stdDeviation="9.81966" result="effect1_foregroundBlur_137_352"/>
</filter>
</defs>
</svg>
