<svg width="7" height="12" viewBox="0 0 7 12" fill="none" xmlns="http://www.w3.org/2000/svg">
<path d="M3.5 0C1.5666 0 0 1.5603 0 3.493C0 6.8348 3.5 11.193 3.5 11.193C3.5 11.193 7 6.8341 7 3.493C7 1.561 5.4334 0 3.5 0ZM3.5 5.4257C2.99874 5.4257 2.51801 5.22658 2.16357 4.87213C1.80912 4.51769 1.61 4.03696 1.61 3.5357C1.61 3.03444 1.80912 2.55371 2.16357 2.19927C2.51801 1.84482 2.99874 1.6457 3.5 1.6457C4.00126 1.6457 4.48199 1.84482 4.83643 2.19927C5.19088 2.55371 5.39 3.03444 5.39 3.5357C5.39 4.03696 5.19088 4.51769 4.83643 4.87213C4.48199 5.22658 4.00126 5.4257 3.5 5.4257Z" fill="black" fill-opacity="0.5"/>
</svg>
