<svg width="153" height="68" viewBox="0 0 153 68" fill="none" xmlns="http://www.w3.org/2000/svg">
<path d="M7.55477 67.023C3.95847 67.023 1.0431 64.1076 1.0431 60.5113V26.5772C1.0431 22.9809 3.95847 20.0656 7.55477 20.0656C11.1511 20.0656 14.0664 22.9809 14.0664 26.5772V60.5113C14.0664 64.1076 11.1511 67.023 7.55477 67.023ZM7.58534 14.0125C5.64916 14.0125 3.98813 13.3705 2.60223 12.0865C1.23671 10.7821 0.553955 9.22296 0.553955 7.40906C0.553955 5.61555 1.23671 4.0768 2.60223 2.79281C3.98813 1.48843 5.64916 0.836243 7.58534 0.836243C9.52152 0.836243 11.1724 1.48843 12.5379 2.79281C13.9238 4.0768 14.6167 5.61555 14.6167 7.40906C14.6167 9.22296 13.9238 10.7821 12.5379 12.0865C11.1724 13.3705 9.52152 14.0125 7.58534 14.0125Z" fill="#36E1BC"/>
<path d="M7.55477 67.023C3.95847 67.023 1.0431 64.1076 1.0431 60.5113V26.5772C1.0431 22.9809 3.95847 20.0656 7.55477 20.0656C11.1511 20.0656 14.0664 22.9809 14.0664 26.5772V60.5113C14.0664 64.1076 11.1511 67.023 7.55477 67.023ZM7.58534 14.0125C5.64916 14.0125 3.98813 13.3705 2.60223 12.0865C1.23671 10.7821 0.553955 9.22296 0.553955 7.40906C0.553955 5.61555 1.23671 4.0768 2.60223 2.79281C3.98813 1.48843 5.64916 0.836243 7.58534 0.836243C9.52152 0.836243 11.1724 1.48843 12.5379 2.79281C13.9238 4.0768 14.6167 5.61555 14.6167 7.40906C14.6167 9.22296 13.9238 10.7821 12.5379 12.0865C11.1724 13.3705 9.52152 14.0125 7.58534 14.0125Z" fill="url(#paint0_linear_253_276)" fill-opacity="0.2"/>
<path d="M30.7086 67.023C27.4141 67.023 24.7435 64.3523 24.7435 61.0578V10.3782C24.7435 7.08378 27.4141 4.41308 30.7086 4.41308H49.445C54.1734 4.41308 58.2088 5.25888 61.5512 6.95049C64.9141 8.62172 67.4719 10.9961 69.2246 14.0736C70.9977 17.1307 71.8843 20.7279 71.8843 24.8652C71.8843 29.0229 70.9876 32.5998 69.194 35.5957C67.4005 38.5714 64.802 40.854 61.3984 42.4437C58.0152 44.0334 53.9186 44.8283 49.1087 44.8283H37.8891C34.9513 44.8283 32.5697 42.4467 32.5697 39.5089C32.5697 36.571 34.9513 34.1895 37.8891 34.1895H46.9687C49.496 34.1895 51.5952 33.843 53.2664 33.1501C54.9377 32.4571 56.1809 31.4177 56.9961 30.0318C57.8317 28.6459 58.2495 26.9237 58.2495 24.8652C58.2495 22.7864 57.8317 21.0336 56.9961 19.607C56.1809 18.1803 54.9275 17.1001 53.2359 16.3664C51.5646 15.6123 49.4552 15.2353 46.9076 15.2353H43.946C40.6515 15.2353 37.9808 17.906 37.9808 21.2005V61.0578C37.9808 64.3523 35.3101 67.023 32.0156 67.023H30.7086ZM55.0163 38.5306C57.198 38.5306 59.2058 39.7217 60.2515 41.6366L69.2967 58.1987C71.4677 62.1738 68.5907 67.023 64.0614 67.023H63.0789C60.8776 67.023 58.8551 65.8106 57.8177 63.8691L48.968 47.307C46.8448 43.3334 49.7239 38.5306 54.2292 38.5306H55.0163Z" fill="#36E1BC"/>
<path d="M30.7086 67.023C27.4141 67.023 24.7435 64.3523 24.7435 61.0578V10.3782C24.7435 7.08378 27.4141 4.41308 30.7086 4.41308H49.445C54.1734 4.41308 58.2088 5.25888 61.5512 6.95049C64.9141 8.62172 67.4719 10.9961 69.2246 14.0736C70.9977 17.1307 71.8843 20.7279 71.8843 24.8652C71.8843 29.0229 70.9876 32.5998 69.194 35.5957C67.4005 38.5714 64.802 40.854 61.3984 42.4437C58.0152 44.0334 53.9186 44.8283 49.1087 44.8283H37.8891C34.9513 44.8283 32.5697 42.4467 32.5697 39.5089C32.5697 36.571 34.9513 34.1895 37.8891 34.1895H46.9687C49.496 34.1895 51.5952 33.843 53.2664 33.1501C54.9377 32.4571 56.1809 31.4177 56.9961 30.0318C57.8317 28.6459 58.2495 26.9237 58.2495 24.8652C58.2495 22.7864 57.8317 21.0336 56.9961 19.607C56.1809 18.1803 54.9275 17.1001 53.2359 16.3664C51.5646 15.6123 49.4552 15.2353 46.9076 15.2353H43.946C40.6515 15.2353 37.9808 17.906 37.9808 21.2005V61.0578C37.9808 64.3523 35.3101 67.023 32.0156 67.023H30.7086ZM55.0163 38.5306C57.198 38.5306 59.2058 39.7217 60.2515 41.6366L69.2967 58.1987C71.4677 62.1738 68.5907 67.023 64.0614 67.023H63.0789C60.8776 67.023 58.8551 65.8106 57.8177 63.8691L48.968 47.307C46.8448 43.3334 49.7239 38.5306 54.2292 38.5306H55.0163Z" fill="url(#paint1_linear_253_276)" fill-opacity="0.2"/>
<path d="M87.5062 67.023C83.9099 67.023 80.9945 64.1076 80.9945 60.5113V26.5772C80.9945 22.9809 83.9099 20.0656 87.5062 20.0656C91.1025 20.0656 94.0179 22.9809 94.0179 26.5772V60.5113C94.0179 64.1076 91.1025 67.023 87.5062 67.023ZM87.5368 14.0125C85.6006 14.0125 83.9396 13.3705 82.5537 12.0865C81.1882 10.7821 80.5054 9.22296 80.5054 7.40906C80.5054 5.61555 81.1882 4.0768 82.5537 2.79281C83.9396 1.48843 85.6006 0.836243 87.5368 0.836243C89.473 0.836243 91.1238 1.48843 92.4893 2.79281C93.8752 4.0768 94.5682 5.61555 94.5682 7.40906C94.5682 9.22296 93.8752 10.7821 92.4893 12.0865C91.1238 13.3705 89.473 14.0125 87.5368 14.0125Z" fill="#36E1BC"/>
<path d="M87.5062 67.023C83.9099 67.023 80.9945 64.1076 80.9945 60.5113V26.5772C80.9945 22.9809 83.9099 20.0656 87.5062 20.0656C91.1025 20.0656 94.0179 22.9809 94.0179 26.5772V60.5113C94.0179 64.1076 91.1025 67.023 87.5062 67.023ZM87.5368 14.0125C85.6006 14.0125 83.9396 13.3705 82.5537 12.0865C81.1882 10.7821 80.5054 9.22296 80.5054 7.40906C80.5054 5.61555 81.1882 4.0768 82.5537 2.79281C83.9396 1.48843 85.6006 0.836243 87.5368 0.836243C89.473 0.836243 91.1238 1.48843 92.4893 2.79281C93.8752 4.0768 94.5682 5.61555 94.5682 7.40906C94.5682 9.22296 93.8752 10.7821 92.4893 12.0865C91.1238 13.3705 89.473 14.0125 87.5368 14.0125Z" fill="url(#paint2_linear_253_276)" fill-opacity="0.2"/>
<path d="M144.062 22.4195C140.996 22.4195 138.663 19.7734 136.535 17.5654C136.226 17.2453 135.885 16.9475 135.511 16.6721C133.656 15.3066 131.139 14.6239 127.96 14.6239C125.799 14.6239 123.975 14.9296 122.487 15.541C121 16.1321 119.858 16.9575 119.063 18.0173C118.289 19.0771 117.902 20.2796 117.902 21.6247C117.861 22.7456 118.095 23.7239 118.605 24.5595C119.135 25.3951 119.858 26.1187 120.775 26.7301C121.693 27.3211 122.752 27.8408 123.955 28.2892C125.157 28.7172 126.441 29.0841 127.807 29.3898L133.432 30.7349C136.163 31.3463 138.67 32.1616 140.952 33.1806C143.235 34.1997 145.212 35.4531 146.883 36.9409C148.554 38.4287 149.849 40.1814 150.766 42.1991C151.703 44.2168 152.182 46.5301 152.203 49.1388C152.182 52.9704 151.204 56.2925 149.268 59.105C147.352 61.8972 144.58 64.0678 140.952 65.6167C137.345 67.1453 132.994 67.9096 127.898 67.9096C122.844 67.9096 118.442 67.1351 114.692 65.5861C110.962 64.0372 108.048 61.7444 105.948 58.7076C104.875 57.1291 104.065 55.3578 103.519 53.3935C102.622 50.1687 105.432 47.3657 108.779 47.3657H109.913C113.051 47.3657 115.383 50.0508 117.251 52.5716C117.264 52.5891 117.277 52.6065 117.29 52.6239C118.37 54.0098 119.807 55.0594 121.601 55.7728C123.415 56.4657 125.463 56.8122 127.746 56.8122C129.988 56.8122 131.934 56.4861 133.585 55.8339C135.256 55.1817 136.55 54.2748 137.467 53.1131C138.384 51.9514 138.843 50.6164 138.843 49.1082C138.843 47.702 138.425 46.5199 137.59 45.562C136.774 44.6041 135.572 43.7888 133.982 43.1163C132.413 42.4437 130.487 41.8323 128.204 41.282L121.387 39.57C116.108 38.286 111.94 36.2785 108.883 33.5475C105.826 30.8164 104.308 27.1377 104.328 22.5113C104.308 18.7204 105.317 15.4085 107.355 12.5756C109.413 9.74267 112.236 7.53135 115.823 5.94164C119.41 4.35194 123.486 3.55708 128.051 3.55708C132.698 3.55708 136.754 4.35194 140.219 5.94164C143.704 7.53135 146.414 9.74267 148.351 12.5756C149.181 13.7909 149.839 15.0887 150.325 16.4691C151.431 19.613 148.616 22.4195 145.283 22.4195H144.062Z" fill="#36E1BC"/>
<path d="M144.062 22.4195C140.996 22.4195 138.663 19.7734 136.535 17.5654C136.226 17.2453 135.885 16.9475 135.511 16.6721C133.656 15.3066 131.139 14.6239 127.96 14.6239C125.799 14.6239 123.975 14.9296 122.487 15.541C121 16.1321 119.858 16.9575 119.063 18.0173C118.289 19.0771 117.902 20.2796 117.902 21.6247C117.861 22.7456 118.095 23.7239 118.605 24.5595C119.135 25.3951 119.858 26.1187 120.775 26.7301C121.693 27.3211 122.752 27.8408 123.955 28.2892C125.157 28.7172 126.441 29.0841 127.807 29.3898L133.432 30.7349C136.163 31.3463 138.67 32.1616 140.952 33.1806C143.235 34.1997 145.212 35.4531 146.883 36.9409C148.554 38.4287 149.849 40.1814 150.766 42.1991C151.703 44.2168 152.182 46.5301 152.203 49.1388C152.182 52.9704 151.204 56.2925 149.268 59.105C147.352 61.8972 144.58 64.0678 140.952 65.6167C137.345 67.1453 132.994 67.9096 127.898 67.9096C122.844 67.9096 118.442 67.1351 114.692 65.5861C110.962 64.0372 108.048 61.7444 105.948 58.7076C104.875 57.1291 104.065 55.3578 103.519 53.3935C102.622 50.1687 105.432 47.3657 108.779 47.3657H109.913C113.051 47.3657 115.383 50.0508 117.251 52.5716C117.264 52.5891 117.277 52.6065 117.29 52.6239C118.37 54.0098 119.807 55.0594 121.601 55.7728C123.415 56.4657 125.463 56.8122 127.746 56.8122C129.988 56.8122 131.934 56.4861 133.585 55.8339C135.256 55.1817 136.55 54.2748 137.467 53.1131C138.384 51.9514 138.843 50.6164 138.843 49.1082C138.843 47.702 138.425 46.5199 137.59 45.562C136.774 44.6041 135.572 43.7888 133.982 43.1163C132.413 42.4437 130.487 41.8323 128.204 41.282L121.387 39.57C116.108 38.286 111.94 36.2785 108.883 33.5475C105.826 30.8164 104.308 27.1377 104.328 22.5113C104.308 18.7204 105.317 15.4085 107.355 12.5756C109.413 9.74267 112.236 7.53135 115.823 5.94164C119.41 4.35194 123.486 3.55708 128.051 3.55708C132.698 3.55708 136.754 4.35194 140.219 5.94164C143.704 7.53135 146.414 9.74267 148.351 12.5756C149.181 13.7909 149.839 15.0887 150.325 16.4691C151.431 19.613 148.616 22.4195 145.283 22.4195H144.062Z" fill="url(#paint3_linear_253_276)" fill-opacity="0.2"/>
<g filter="url(#filter0_d_253_276)">
<path d="M85.0093 28.1384C72.711 21.9892 69.6364 21.9892 66.5618 21.9892" stroke="#36E1BC" stroke-width="6.14919" stroke-linecap="round"/>
</g>
<g filter="url(#filter1_d_253_276)">
<path d="M5.07013 31.2131C10.1945 34.2877 20.4431 39.822 32.7415 37.3623" stroke="#36E1BC" stroke-width="6.14919" stroke-linecap="round" stroke-linejoin="round"/>
</g>
<circle cx="12.4027" cy="5.50684" r="1.30915" fill="white"/>
<circle cx="81.7094" cy="6.89292" r="1.30915" fill="white"/>
<defs>
<filter id="filter0_d_253_276" x="53.7842" y="13.3701" width="35.6865" height="23.3881" filterUnits="userSpaceOnUse" color-interpolation-filters="sRGB">
<feFlood flood-opacity="0" result="BackgroundImageFix"/>
<feColorMatrix in="SourceAlpha" type="matrix" values="0 0 0 0 0 0 0 0 0 0 0 0 0 0 0 0 0 0 127 0" result="hardAlpha"/>
<feOffset dx="-4.1584"/>
<feGaussianBlur stdDeviation="2.77227"/>
<feComposite in2="hardAlpha" operator="out"/>
<feColorMatrix type="matrix" values="0 0 0 0 0.184314 0 0 0 0 0.74902 0 0 0 0 0.65098 0 0 0 1 0"/>
<feBlend mode="normal" in2="BackgroundImageFix" result="effect1_dropShadow_253_276"/>
<feBlend mode="normal" in="SourceGraphic" in2="effect1_dropShadow_253_276" result="shape"/>
</filter>
<filter id="filter1_d_253_276" x="1.99506" y="28.138" width="44.9107" height="24.0012" filterUnits="userSpaceOnUse" color-interpolation-filters="sRGB">
<feFlood flood-opacity="0" result="BackgroundImageFix"/>
<feColorMatrix in="SourceAlpha" type="matrix" values="0 0 0 0 0 0 0 0 0 0 0 0 0 0 0 0 0 0 127 0" result="hardAlpha"/>
<feOffset dx="5.54454" dy="5.54454"/>
<feGaussianBlur stdDeviation="2.77227"/>
<feComposite in2="hardAlpha" operator="out"/>
<feColorMatrix type="matrix" values="0 0 0 0 0.184314 0 0 0 0 0.74902 0 0 0 0 0.65098 0 0 0 1 0"/>
<feBlend mode="normal" in2="BackgroundImageFix" result="effect1_dropShadow_253_276"/>
<feBlend mode="normal" in="SourceGraphic" in2="effect1_dropShadow_253_276" result="shape"/>
</filter>
<linearGradient id="paint0_linear_253_276" x1="43.1944" y1="46.145" x2="121.114" y2="67.023" gradientUnits="userSpaceOnUse">
<stop stop-color="white" stop-opacity="0"/>
<stop offset="1" stop-color="#FCFF74"/>
</linearGradient>
<linearGradient id="paint1_linear_253_276" x1="43.1944" y1="46.145" x2="121.114" y2="67.023" gradientUnits="userSpaceOnUse">
<stop stop-color="white" stop-opacity="0"/>
<stop offset="1" stop-color="#FCFF74"/>
</linearGradient>
<linearGradient id="paint2_linear_253_276" x1="43.1944" y1="46.145" x2="121.114" y2="67.023" gradientUnits="userSpaceOnUse">
<stop stop-color="white" stop-opacity="0"/>
<stop offset="1" stop-color="#FCFF74"/>
</linearGradient>
<linearGradient id="paint3_linear_253_276" x1="43.1944" y1="46.145" x2="121.114" y2="67.023" gradientUnits="userSpaceOnUse">
<stop stop-color="white" stop-opacity="0"/>
<stop offset="1" stop-color="#FCFF74"/>
</linearGradient>
</defs>
</svg>
