<svg width="390" height="813" viewBox="0 0 390 813" fill="none" xmlns="http://www.w3.org/2000/svg">
<path d="M101.065 332.026C103.871 338.52 107.148 351.918 108.972 356.188M108.972 356.188C121.224 350.104 137.176 342.75 156.386 337.385C175.596 332.02 179.59 330.529 186.734 330.738C203.672 329.883 204.98 330.185 208.687 330.592M108.972 356.188L129.326 396.456M208.687 330.592C210.554 330.45 299.615 282.53 299.615 282.53L369.342 244.223L387.054 238.426M208.687 330.592C206.583 346.84 198.76 358.714 188.329 375.075M452.075 261.728L435.032 246.188L419.899 239.408M322.065 327.744L332.298 310.785L362.214 304.279L402.487 333.804L369.038 391.681L339.937 442.034M322.065 327.744L308.241 332.268L253.808 350.083C249.528 351.749 228.454 363.884 220.48 366.623C212.505 369.361 208.686 371.657 187.215 377.51M322.065 327.744L277.806 405.871M187.215 377.51L129.326 396.456M187.215 377.51L188.329 375.075M129.326 396.456C135.897 398.998 164.403 415.949 164.403 415.949M129.326 396.456L63.8499 516.437M164.403 415.949L188.329 375.075M164.403 415.949L189.157 430.374M245.369 463.129L307.826 497.595M245.369 463.129L277.806 405.871M245.369 463.129L213.62 518.103M245.369 463.129L204.886 439.539M307.826 497.595L339.937 442.034M307.826 497.595L396.814 545.904M307.826 497.595L275.058 553.841M277.806 405.871L339.937 442.034M339.937 442.034L401.5 473.579L396.814 545.904M396.814 545.904L352.168 599.468L275.058 553.841M275.058 553.841L213.62 518.103M275.058 553.841L244.973 613.902M213.62 518.103L172.249 496.916M213.62 518.103L188.842 578.304M172.249 496.916L204.886 439.539M172.249 496.916L161.127 490.7M204.886 439.539L189.157 430.374M189.157 430.374L161.127 490.7M161.127 490.7L132.941 547.793M132.941 547.793L188.842 578.304M132.941 547.793L63.8499 516.437M188.842 578.304L244.973 613.902M244.973 613.902L260.815 621.388M63.8499 516.437L35.8177 560.809L-19.9879 533.552L9.5972 480.694M98.2109 330.614C130.594 319.488 146.558 314.311 172.516 306.295L288.488 238.304L356.566 193.497L392.476 215.533M392.476 215.533L387.054 238.426M392.476 215.533L404.767 232.629L387.054 238.426M96.7452 405.049L-28.7348 417.683L-43.8464 447.501L9.5972 480.694M29.3911 492.987L9.5972 480.694" stroke="url(#paint0_linear_246_485)" stroke-opacity="0.3" stroke-width="5"/>
<path d="M105.592 342.887L143.652 332.281M156.755 337.272L164.242 351.622M204.797 332.281L164.242 351.622M241.609 315.434L231.002 299.212L274.053 282.99L303.378 310.443L220.395 351.622M178.592 421.502L189.823 404.656L182.336 387.186L272.352 360.669M184.831 352.87L182.336 352.719M164.242 351.622L182.336 352.719M119.943 371.588L149.891 360.669L182.336 364.725L182.336 352.719M149.891 410.896L128.678 455.818L148.643 463.93L171.105 423.374M178.592 430.861L164.242 455.818M259.703 380.323L282.788 393.426M259.703 380.323L285 341.016M259.703 380.323L239.113 414.639M184.831 412.143L231.002 439.596M213.532 412.143L259.703 439.596M128.678 384.691L143.652 378.451M355.164 304.828L344.557 325.417M330.831 397.793L312.737 387.186L333.95 346.007M330.831 397.793L355.164 352.87M330.831 397.793C325.839 423.998 341.156 418.432 336.446 417.759M330.831 397.793L406.5 437.58M355.164 352.87L333.95 346.007M355.164 352.87L370.138 360.669M333.95 346.007L344.557 325.417M344.557 325.417L382.617 341.016L370.138 360.669M370.138 360.669L355.164 387.186L340.294 380.323M275.925 476.408C277.422 474.911 289.027 454.987 294.643 445.212L325.215 460.81L312.737 484.519L266.566 460.81M189.823 460.81L207.293 469.545M207.293 469.545L207.293 453.323L226.011 463.93L207.293 498.87L207.293 469.545ZM207.293 469.545L192.942 490.135M257.207 472.041L239.113 507.605M239.113 507.605L266.566 521.331L257.207 493.254M239.113 507.605L231.002 516.963L266.566 537.553L280.292 507.605L257.207 493.254M239.113 507.605L257.207 493.254M239.113 507.605L226.011 501.989M257.207 493.254L235.994 479.528C210.728 471.268 197.966 458.282 167.361 481.806M85.6267 484.519C95.3592 493.194 102.216 497.351 119.943 501.989L108.088 516.963C104.682 523.03 102.245 525.787 74.396 501.989L85.6267 484.519ZM85.6267 484.519C140.332 494.252 156.667 492.918 167.361 481.806M167.361 481.806C176.346 502.445 173.601 519.667 171.105 525.699L136.789 511.348L132.421 516.963L164.242 530.69L154.259 558.143L103.721 601.194L69.4045 565.006M69.4045 565.006L54.4302 549.408M69.4045 565.006L54.4302 581.852L37.5842 571.869L54.4302 549.408M54.4302 549.408C54.4302 549.408 53.1824 533.186 69.4045 530.69C85.6267 528.194 93.1138 543.792 93.1138 543.792C93.4313 550.215 87.827 552.23 54.4302 549.408ZM37.5842 439.596L89.9942 460.81L35.7124 560.015L26.3534 558.143L123.062 384.691L102.473 329.785L7.63558 375.956L13.8749 387.186L128.678 393.426M-38.5352 387.186L-12.9541 416.511L4.51593 423.374L-3.80312 435.853M-3.80312 435.853L-9.2105 443.964L-21.6891 439.596L-17.3216 430.861L-3.80312 435.853ZM-12.9541 467.673C-12.9541 467.673 -21.6891 473.288 -21.6891 484.519C-21.6891 495.75 -9.2105 511.348 -9.2105 511.348L-17.3216 530.69C-17.3216 530.69 -27.3044 536.929 -29.1762 525.699C-31.048 514.468 -1.09943 475.784 -1.09943 475.784M232.874 566.254L221.019 577.27M139.285 622.407L184.831 656.1L213.532 623.655L154.259 586.22L141.156 601.194L171.105 623.655L221.019 577.27M139.285 622.407L178.592 586.22L154.259 571.869L119.943 608.681L139.285 622.407ZM207.293 571.869L221.019 549.408L252.216 566.254L231.002 586.22M231.002 586.22L221.019 577.27M231.002 586.22L242.233 598.074L287.78 568.65M287.78 568.65L312.737 552.527L341.438 571.869L304.626 603.69L270.31 577.27L287.78 568.65ZM287.78 568.65L304.626 589.339L329.583 617.416L387.608 541.921L365.147 530.69L385.736 505.109M349.549 521.331L368.266 493.254L353.292 484.519L369.514 458.938" stroke="url(#paint1_linear_246_485)" stroke-opacity="0.3" stroke-width="2"/>
<g filter="url(#filter0_i_246_485)">
<path d="M223.504 262.492C367.737 169.243 344.607 181.681 408 131.08L408 -2.92089C370.335 28.3013 273.793 102.279 258.783 108.434C243.774 114.588 111.426 151.7 27.0634 176.483L-141.024 220.461L-76.5915 395.671C35.4442 346.674 95.2443 320.963 223.504 262.492Z" fill="#05CAAD" fill-opacity="0.35"/>
</g>
<path d="M10.2024 173.191L-6.97997 178.979L-170.714 217.127L-168.29 135.884L-18.9249 84.0735L10.2024 173.191ZM10.2024 173.191L113.889 138.259L118.629 136.662M173.732 118.098L260.236 88.9554L285.478 71.5747M173.732 118.098L153.465 68.6768L115.194 37.8405L68.8209 48.0906L90.1887 80.4636L100.605 105.864L118.629 136.662M173.732 118.098L118.629 136.662M285.478 71.5747L364.357 17.2602L299.154 -46.3644L204.759 11.227C228.615 28.8375 278.157 65.5617 285.478 71.5747Z" stroke="url(#paint2_linear_246_485)" stroke-opacity="0.5" stroke-width="5"/>
<path d="M-41.0312 121.392L0.14805 108.913L20.1138 166.315L-11.7066 180.665L-20.4416 160.075L31.9684 88.9475L87.4981 77.0928L94.9852 92.691L143.652 83.3321L155.506 105.794L168.609 101.426L163.937 92.691M163.937 92.691L154.258 74.5971L185.455 68.9817L194.814 88.9475L163.937 92.691ZM176.096 80.2125L274.053 83.3321" stroke="#05CAAD" stroke-opacity="0.1" stroke-width="2"/>
<path d="M134.35 545.214L189.256 431.035L129.982 396.719L110.017 356.164L129.982 346.181" stroke="#05CAAD" stroke-opacity="0.2" stroke-width="2"/>
<defs>
<filter id="filter0_i_246_485" x="-141.023" y="-2.9209" width="549.024" height="402.592" filterUnits="userSpaceOnUse" color-interpolation-filters="sRGB">
<feFlood flood-opacity="0" result="BackgroundImageFix"/>
<feBlend mode="normal" in="SourceGraphic" in2="BackgroundImageFix" result="shape"/>
<feColorMatrix in="SourceAlpha" type="matrix" values="0 0 0 0 0 0 0 0 0 0 0 0 0 0 0 0 0 0 127 0" result="hardAlpha"/>
<feOffset dy="4"/>
<feGaussianBlur stdDeviation="2"/>
<feComposite in2="hardAlpha" operator="arithmetic" k2="-1" k3="1"/>
<feColorMatrix type="matrix" values="0 0 0 0 0 0 0 0 0 0 0 0 0 0 0 0 0 0 0.25 0"/>
<feBlend mode="normal" in2="shape" result="effect1_innerShadow_246_485"/>
</filter>
<linearGradient id="paint0_linear_246_485" x1="174.907" y1="252.951" x2="294.494" y2="618.343" gradientUnits="userSpaceOnUse">
<stop stop-color="#05CAAD"/>
<stop offset="1" stop-color="#05CAAD" stop-opacity="0"/>
</linearGradient>
<linearGradient id="paint1_linear_246_485" x1="174.537" y1="282.99" x2="174.537" y2="656.1" gradientUnits="userSpaceOnUse">
<stop stop-color="#05CAAD"/>
<stop offset="1" stop-color="#05CAAD" stop-opacity="0"/>
</linearGradient>
<linearGradient id="paint2_linear_246_485" x1="65.218" y1="40.1271" x2="110.433" y2="150.387" gradientUnits="userSpaceOnUse">
<stop stop-color="#05CAAD" stop-opacity="0"/>
<stop offset="1" stop-color="#05CAAD"/>
</linearGradient>
</defs>
</svg>
