<svg width="9" height="10" viewBox="0 0 9 10" fill="none" xmlns="http://www.w3.org/2000/svg">
<path fill-rule="evenodd" clip-rule="evenodd" d="M4.5 0.193115C3.30653 0.193115 2.16193 0.667221 1.31802 1.51113C0.474106 2.35505 0 3.49964 0 4.69312C0 5.88659 0.474106 7.03118 1.31802 7.8751C2.16193 8.71901 3.30653 9.19312 4.5 9.19312C5.69347 9.19312 6.83807 8.71901 7.68198 7.8751C8.52589 7.03118 9 5.88659 9 4.69312C9 3.49964 8.52589 2.35505 7.68198 1.51113C6.83807 0.667221 5.69347 0.193115 4.5 0.193115ZM0.645478 4.69312C0.645478 3.67083 1.05158 2.69042 1.77444 1.96756C2.4973 1.24469 3.47772 0.838593 4.5 0.838593C5.52228 0.838593 6.5027 1.24469 7.22556 1.96756C7.94842 2.69042 8.35452 3.67083 8.35452 4.69312C8.35452 5.7154 7.94842 6.69581 7.22556 7.41867C6.5027 8.14154 5.52228 8.54764 4.5 8.54764C3.47772 8.54764 2.4973 8.14154 1.77444 7.41867C1.05158 6.69581 0.645478 5.7154 0.645478 4.69312ZM4.83973 2.65476C4.83973 2.56466 4.80393 2.47825 4.74022 2.41454C4.67651 2.35083 4.5901 2.31504 4.5 2.31504C4.4099 2.31504 4.32349 2.35083 4.25978 2.41454C4.19607 2.47825 4.16027 2.56466 4.16027 2.65476V4.69312C4.1602 4.73776 4.16892 4.78198 4.18594 4.82325C4.20296 4.86452 4.22795 4.90203 4.25947 4.93364L5.61838 6.29254C5.68217 6.35633 5.76869 6.39217 5.8589 6.39217C5.94912 6.39217 6.03563 6.35633 6.09943 6.29254C6.16322 6.22875 6.19906 6.14223 6.19906 6.05202C6.19906 5.9618 6.16322 5.87528 6.09943 5.81149L4.83973 4.55247V2.65476Z" fill="black" fill-opacity="0.5"/>
</svg>
