<svg width="138" height="56" viewBox="0 0 138 56" fill="none" xmlns="http://www.w3.org/2000/svg">
<circle cx="29" cy="24" r="16" fill="black"/>
<circle cx="109" cy="24" r="16" fill="black"/>
<circle cx="24" cy="20" r="10" fill="white"/>
<circle cx="103" cy="20" r="10" fill="white"/>
<path d="M37.3206 29.0694C35.9977 30.4331 35.66 31.2204 34.6144 30.8712C33.5688 30.522 34.1654 29.2111 34.6144 27.8668C35.0634 26.5224 35.1949 25.6537 36.2405 26.003C37.286 26.3522 37.7697 27.7251 37.3206 29.0694Z" fill="white"/>
<path d="M116.321 29.0694C114.998 30.4331 114.66 31.2204 113.614 30.8712C112.569 30.522 113.165 29.2111 113.614 27.8668C114.063 26.5224 114.195 25.6537 115.24 26.003C116.286 26.3522 116.77 27.7251 116.321 29.0694Z" fill="white"/>
<path d="M1 12.5C7.66667 11.1667 21.6 7.1 24 1.5" stroke="black"/>
<path d="M137 12C130.333 10.6667 116.4 6.6 114 1" stroke="black"/>
<path d="M66 55.5C68.5 53 73.5 51.5 75.5 55.5" stroke="black"/>
</svg>
