<svg width="76" height="25" viewBox="0 0 76 25" fill="none" xmlns="http://www.w3.org/2000/svg">
<path d="M22.7551 20.1888C22.7551 23.2179 20.2995 23.2602 17.2704 23.2602C14.2413 23.2602 11.7857 23.2179 11.7857 20.1888C11.7857 17.1597 14.2413 14.7041 17.2704 14.7041C20.2995 14.7041 22.7551 17.1597 22.7551 20.1888Z" fill="black"/>
<path d="M64 20.1888C64 23.2179 61.5444 23.2602 58.5153 23.2602C55.4862 23.2602 53.0306 23.2179 53.0306 20.1888C53.0306 17.1597 55.4862 14.7041 58.5153 14.7041C61.5444 14.7041 64 17.1597 64 20.1888Z" fill="black"/>
<path d="M17.9286 23.699C17.9286 24.5471 14.0979 24.5765 9.37247 24.5765C4.64705 24.5765 0.816345 24.5471 0.816345 23.699C0.816345 22.8508 4.64705 22.1633 9.37247 22.1633C14.0979 22.1633 17.9286 22.8508 17.9286 23.699Z" fill="#FF6767"/>
<path d="M75.8469 23.699C75.8469 24.5471 72.0162 24.5765 67.2908 24.5765C62.5654 24.5765 58.7347 24.5471 58.7347 23.699C58.7347 22.8508 62.5654 22.1633 67.2908 22.1633C72.0162 22.1633 75.8469 22.8508 75.8469 23.699Z" fill="#FF6767"/>
<path d="M11.5 1.99998C13.3333 1.49998 17.9 0.799984 21.5 1.99998" stroke="black"/>
<path d="M51 1.66258C52.8333 1.16258 57.4 0.462582 61 1.66258" stroke="black"/>
</svg>
